<svg width="171" height="41" viewBox="0 0 171 41" fill="none" xmlns="http://www.w3.org/2000/svg">
<circle cx="20" cy="20.5" r="20" fill="#425DF8"/>
<path d="M8 12.5H15.5M31.5 12.5V24.5M31.5 12.5L15.5 30.5V12.5M31.5 12.5H15.5" stroke="white" stroke-width="2.5"/>
<path d="M60.744 37.276L63.88 29.758L58.126 16.668H61.374L65.364 26.356L69.13 16.668H72.378L63.824 37.276H60.744ZM80.0581 30.78C78.5928 30.78 77.3374 30.458 76.2921 29.814C75.2561 29.1607 74.4628 28.2927 73.9121 27.21C73.3708 26.118 73.1001 24.914 73.1001 23.598C73.1001 22.2727 73.3708 21.064 73.9121 19.972C74.4628 18.88 75.2561 18.012 76.2921 17.368C77.3374 16.7147 78.5928 16.388 80.0581 16.388C81.5328 16.388 82.7881 16.7147 83.8241 17.368C84.8694 18.012 85.6628 18.88 86.2041 19.972C86.7548 21.064 87.0301 22.2727 87.0301 23.598C87.0301 24.914 86.7548 26.118 86.2041 27.21C85.6628 28.2927 84.8694 29.1607 83.8241 29.814C82.7881 30.458 81.5328 30.78 80.0581 30.78ZM80.0581 28.274C81.3461 28.274 82.3308 27.854 83.0121 27.014C83.7028 26.174 84.0481 25.0353 84.0481 23.598C84.0481 22.1513 83.7028 21.0033 83.0121 20.154C82.3308 19.3047 81.3461 18.88 80.0581 18.88C78.7888 18.88 77.8088 19.3047 77.1181 20.154C76.4274 21.0033 76.0821 22.1513 76.0821 23.598C76.0821 25.0353 76.4274 26.174 77.1181 27.014C77.8088 27.854 78.7888 28.274 80.0581 28.274ZM94.8587 30.78C93.6174 30.78 92.5954 30.5327 91.7927 30.038C90.9901 29.5433 90.3927 28.8247 90.0007 27.882C89.6087 26.9393 89.4127 25.796 89.4127 24.452V16.668H92.3387V24.046C92.3387 25.4367 92.5721 26.4867 93.0387 27.196C93.5147 27.9053 94.2894 28.26 95.3627 28.26C96.1374 28.26 96.8234 28.0733 97.4207 27.7C98.0274 27.3267 98.4754 26.7573 98.7647 25.992L98.2887 27.532V16.668H101.215V30.5H98.5547L98.1907 27.924L98.8907 28.596C98.4894 29.268 97.9434 29.8 97.2527 30.192C96.5714 30.584 95.7734 30.78 94.8587 30.78ZM104.564 30.5V16.668H107.14L107.35 18.6C107.91 17.928 108.508 17.3913 109.142 16.99C109.786 16.5887 110.482 16.388 111.228 16.388C111.452 16.388 111.662 16.4113 111.858 16.458L111.606 19.496C111.448 19.4587 111.284 19.4307 111.116 19.412C110.958 19.3933 110.79 19.384 110.612 19.384C109.94 19.384 109.324 19.538 108.764 19.846C108.214 20.1447 107.822 20.4853 107.588 20.868V30.5H104.564ZM119.877 37.276V16.668H122.201L122.747 19.454L121.907 19.006C122.504 18.2127 123.209 17.5827 124.021 17.116C124.833 16.64 125.827 16.402 127.003 16.402C128.3 16.402 129.406 16.7287 130.321 17.382C131.236 18.026 131.931 18.894 132.407 19.986C132.883 21.0687 133.121 22.2727 133.121 23.598C133.121 24.914 132.888 26.118 132.421 27.21C131.964 28.2927 131.282 29.1607 130.377 29.814C129.472 30.458 128.347 30.78 127.003 30.78C125.911 30.78 124.964 30.5887 124.161 30.206C123.368 29.814 122.71 29.2167 122.187 28.414L122.803 27.84V37.276H119.877ZM126.499 28.274C127.638 28.274 128.524 27.854 129.159 27.014C129.803 26.174 130.125 25.0353 130.125 23.598C130.125 22.1513 129.803 21.008 129.159 20.168C128.524 19.328 127.638 18.908 126.499 18.908C125.724 18.908 125.048 19.09 124.469 19.454C123.9 19.818 123.452 20.35 123.125 21.05C122.808 21.7407 122.649 22.59 122.649 23.598C122.649 24.6247 122.808 25.4833 123.125 26.174C123.452 26.8647 123.9 27.3873 124.469 27.742C125.048 28.0967 125.724 28.274 126.499 28.274ZM139.21 30.78C138.352 30.78 137.661 30.6167 137.138 30.29C136.616 29.9633 136.233 29.5387 135.99 29.016C135.757 28.484 135.64 27.9193 135.64 27.322V9.5H138.566V25.88C138.566 26.6453 138.613 27.21 138.706 27.574C138.809 27.9287 139 28.1573 139.28 28.26C139.57 28.3627 139.994 28.414 140.554 28.414L140.218 30.78H139.21ZM145.694 30.78C144.892 30.78 144.178 30.612 143.552 30.276C142.927 29.9307 142.432 29.4547 142.068 28.848C141.714 28.2413 141.536 27.5273 141.536 26.706C141.536 25.922 141.714 25.2547 142.068 24.704C142.423 24.144 142.894 23.6773 143.482 23.304C144.07 22.9307 144.714 22.6367 145.414 22.422C146.124 22.198 146.842 22.0347 147.57 21.932C148.298 21.8293 148.975 21.7733 149.6 21.764C149.591 20.672 149.358 19.9347 148.9 19.552C148.443 19.16 147.748 18.964 146.814 18.964C146.254 18.964 145.68 19.048 145.092 19.216C144.504 19.3747 143.842 19.678 143.104 20.126L142.768 17.746C143.44 17.3353 144.192 17.0087 145.022 16.766C145.853 16.5233 146.712 16.402 147.598 16.402C148.709 16.402 149.628 16.598 150.356 16.99C151.084 17.382 151.63 18.0307 151.994 18.936C152.358 19.8413 152.54 21.0547 152.54 22.576V25.796C152.54 26.468 152.568 26.9953 152.624 27.378C152.69 27.7513 152.825 28.0173 153.03 28.176C153.236 28.3347 153.548 28.414 153.968 28.414H154.304L153.94 30.78H153.296C152.606 30.78 152.046 30.7053 151.616 30.556C151.196 30.4067 150.856 30.1967 150.594 29.926C150.333 29.646 150.114 29.3147 149.936 28.932C149.442 29.492 148.826 29.94 148.088 30.276C147.36 30.612 146.562 30.78 145.694 30.78ZM146.59 28.484C147.113 28.484 147.65 28.3533 148.2 28.092C148.76 27.8307 149.232 27.4667 149.614 27V23.752C148.569 23.7987 147.668 23.9247 146.912 24.13C146.166 24.326 145.587 24.6247 145.176 25.026C144.775 25.4273 144.574 25.9407 144.574 26.566C144.574 27.238 144.752 27.728 145.106 28.036C145.461 28.3347 145.956 28.484 146.59 28.484ZM156.217 30.5V16.668H158.723L159.073 19.286L158.177 18.586C158.933 17.802 159.721 17.242 160.543 16.906C161.364 16.57 162.223 16.402 163.119 16.402C165.032 16.402 166.423 16.99 167.291 18.166C168.159 19.3327 168.593 20.8867 168.593 22.828V30.5H165.667V22.954C165.667 21.5633 165.419 20.5413 164.925 19.888C164.43 19.2347 163.595 18.908 162.419 18.908C161.551 18.908 160.785 19.1087 160.123 19.51C159.469 19.902 158.993 20.49 158.695 21.274L159.143 19.664V30.5H156.217Z" fill="#0E0F13"/>
</svg>
